<svg width="20" height="20" viewBox="0 0 20 20" fill="none" xmlns="http://www.w3.org/2000/svg">
<path d="M11.6942 4.82422C12.8672 5.99696 14.0055 7.13503 15.1843 8.3131C15.1368 8.34457 15.0685 8.37497 15.0195 8.42457C12.1929 11.2484 9.3637 14.0696 6.54888 16.9052C6.24911 17.207 5.92586 17.3676 5.51726 17.4406C4.59713 17.6044 3.68179 17.7947 2.76592 17.9793C2.24051 18.0849 1.9146 17.7547 2.02075 17.2246C2.22611 16.2012 2.42774 15.1767 2.62724 14.1523C2.66404 13.9629 2.74405 13.8083 2.88274 13.6696C5.78717 10.769 8.68947 7.86619 11.5912 4.96234C11.6334 4.92021 11.6638 4.86582 11.6942 4.82422Z" fill="#0A7C00"/>
<path d="M16.0325 7.38562C14.8915 6.24488 13.75 5.10307 12.5984 3.95167C13.0225 3.52982 13.4534 3.10104 13.8839 2.6728C14.0119 2.54534 14.1373 2.41521 14.2674 2.28989C14.6536 1.91817 15.2158 1.89631 15.5983 2.26855C16.3163 2.96719 17.0246 3.67648 17.725 4.39271C18.0776 4.75323 18.0952 5.32173 17.7554 5.67424C17.1927 6.25715 16.607 6.81765 16.0325 7.38562Z" fill="#0A7C00"/>
</svg>
