<svg width="512" height="512" viewBox="0 0 512 512" fill="none" xmlns="http://www.w3.org/2000/svg">
<rect width="512" height="512" rx="65" fill="url(#paint0_linear_143_1892)"/>
<path opacity="0.1" fill-rule="evenodd" clip-rule="evenodd" d="M191.694 102.204V50.7403L44 135.942V377.823L255.791 500L277.538 487.455V387.544L381.122 327.788V185.69L281.007 127.936V78.7596L423.745 161.102V349.803L319.315 410.047V463.596L468 377.823V135.942L254.884 13L233.471 25.3528V127.936L133.356 185.69V327.788L233.471 385.542V434.433L92.1156 352.888V161.102L191.694 102.204ZM174.594 211.994L254.884 165.677L333.05 211.994V304.041L255.791 348.611L174.594 301.77V211.994Z" fill="url(#paint1_linear_143_1892)"/>
<path fill-rule="evenodd" clip-rule="evenodd" d="M200.038 122V77L71 151.5V363L256.038 469.832L275.038 458.862V371.5L365.538 319.25V195L278.069 144.5V101.5L402.777 173.5V338.5L311.538 391.177V438L441.442 363V151.5L255.246 44L236.538 54.8013V144.5L149.069 195V319.25L236.538 369.75V412.5L113.038 341.197V173.5L200.038 122ZM185.098 218L255.246 177.5L323.538 218V298.486L256.038 337.457L185.098 296.5V218Z" fill="url(#paint2_linear_143_1892)"/>
<path d="M241.03 282L230.25 262.96H225.63V282H215.83V233.14H234.17C237.95 233.14 241.17 233.817 243.83 235.17C246.49 236.477 248.473 238.273 249.78 240.56C251.133 242.8 251.81 245.32 251.81 248.12C251.81 251.34 250.877 254.257 249.01 256.87C247.143 259.437 244.367 261.21 240.68 262.19L252.37 282H241.03ZM225.63 255.61H233.82C236.48 255.61 238.463 254.98 239.77 253.72C241.077 252.413 241.73 250.617 241.73 248.33C241.73 246.09 241.077 244.363 239.77 243.15C238.463 241.89 236.48 241.26 233.82 241.26H225.63V255.61ZM295.534 267.93C295.534 270.357 294.904 272.643 293.644 274.79C292.43 276.89 290.61 278.64 288.184 280.04C285.804 281.393 282.98 282.187 279.714 282.42V288.09H275.234V282.35C270.567 281.93 266.81 280.53 263.964 278.15C261.117 275.723 259.647 272.457 259.554 268.35H270.054C270.334 271.71 272.06 273.74 275.234 274.44V261.07C271.874 260.23 269.167 259.39 267.114 258.55C265.06 257.71 263.287 256.357 261.794 254.49C260.3 252.623 259.554 250.08 259.554 246.86C259.554 242.8 261 239.487 263.894 236.92C266.834 234.353 270.614 232.883 275.234 232.51V226.84H279.714V232.51C284.194 232.883 287.764 234.237 290.424 236.57C293.13 238.903 294.647 242.123 294.974 246.23H284.404C284.264 244.877 283.774 243.71 282.934 242.73C282.14 241.703 281.067 240.98 279.714 240.56V253.79C283.214 254.677 285.967 255.54 287.974 256.38C290.027 257.173 291.8 258.503 293.294 260.37C294.787 262.19 295.534 264.71 295.534 267.93ZM269.774 246.37C269.774 247.91 270.24 249.17 271.174 250.15C272.107 251.083 273.46 251.853 275.234 252.46V240.35C273.554 240.583 272.224 241.213 271.244 242.24C270.264 243.267 269.774 244.643 269.774 246.37ZM279.714 274.58C281.487 274.253 282.864 273.53 283.844 272.41C284.87 271.29 285.384 269.937 285.384 268.35C285.384 266.81 284.894 265.573 283.914 264.64C282.934 263.707 281.534 262.937 279.714 262.33V274.58Z" fill="white"/>
<defs>
<linearGradient id="paint0_linear_143_1892" x1="256" y1="0" x2="256" y2="512" gradientUnits="userSpaceOnUse">
<stop stop-color="#0B2825"/>
<stop offset="1" stop-color="#010B0A"/>
</linearGradient>
<linearGradient id="paint1_linear_143_1892" x1="256" y1="13" x2="256" y2="500" gradientUnits="userSpaceOnUse">
<stop stop-color="#EEFFFA"/>
<stop offset="1" stop-color="#C9ECFE"/>
</linearGradient>
<linearGradient id="paint2_linear_143_1892" x1="256.221" y1="44" x2="256.221" y2="469.832" gradientUnits="userSpaceOnUse">
<stop stop-color="#EEFFFA"/>
<stop offset="1" stop-color="#C9ECFE"/>
</linearGradient>
</defs>
</svg>
